<?xml version="1.0" encoding="UTF-8" standalone="no"?>
<svg
   xmlns:dc="http://purl.org/dc/elements/1.1/"
   xmlns:cc="http://creativecommons.org/ns#"
   xmlns:rdf="http://www.w3.org/1999/02/22-rdf-syntax-ns#"
   xmlns:svg="http://www.w3.org/2000/svg"
   xmlns="http://www.w3.org/2000/svg"
   xmlns:sodipodi="http://sodipodi.sourceforge.net/DTD/sodipodi-0.dtd"
   xmlns:inkscape="http://www.inkscape.org/namespaces/inkscape"
   aria-hidden="true"
   focusable="false"
   data-prefix="fas"
   data-icon="code"
   class="svg-inline--fa fa-code fa-w-20"
   role="img"
   viewBox="0 0 640 512"
   version="1.1"
   id="svg74"
   sodipodi:docname="icon.svg"
   inkscape:version="1.0.2 (e86c870879, 2021-01-15, custom)">
  <metadata
     id="metadata80">
    <rdf:RDF>
      <cc:Work
         rdf:about="">
        <dc:format>image/svg+xml</dc:format>
        <dc:type
           rdf:resource="http://purl.org/dc/dcmitype/StillImage" />
        <dc:title></dc:title>
      </cc:Work>
    </rdf:RDF>
  </metadata>
  <defs
     id="defs78" />
  <sodipodi:namedview
     pagecolor="#ffffff"
     bordercolor="#666666"
     borderopacity="1"
     objecttolerance="10"
     gridtolerance="10"
     guidetolerance="10"
     inkscape:pageopacity="0"
     inkscape:pageshadow="2"
     inkscape:window-width="946"
     inkscape:window-height="1030"
     id="namedview76"
     showgrid="false"
     inkscape:zoom="1.171875"
     inkscape:cx="320"
     inkscape:cy="252.58667"
     inkscape:window-x="962"
     inkscape:window-y="38"
     inkscape:window-maximized="0"
     inkscape:current-layer="svg74" />
  <path
     fill="currentColor"
     d="M278.9 511.5l-61-17.7c-6.4-1.8-10-8.5-8.2-14.9L346.2 8.7c1.8-6.4 8.5-10 14.9-8.2l61 17.7c6.4 1.8 10 8.5 8.2 14.9L293.8 503.3c-1.9 6.4-8.5 10.1-14.9 8.2zm-114-112.2l43.5-46.4c4.6-4.9 4.3-12.7-.8-17.2L117 256l90.6-79.7c5.1-4.5 5.5-12.3.8-17.2l-43.5-46.4c-4.5-4.8-12.1-5.1-17-.5L3.8 247.2c-5.1 4.7-5.1 12.8 0 17.5l144.1 135.1c4.9 4.6 12.5 4.4 17-.5zm327.2.6l144.1-135.1c5.1-4.7 5.1-12.8 0-17.5L492.1 112.1c-4.8-4.5-12.4-4.3-17 .5L431.6 159c-4.6 4.9-4.3 12.7.8 17.2L523 256l-90.6 79.7c-5.1 4.5-5.5 12.3-.8 17.2l43.5 46.4c4.5 4.9 12.1 5.1 17 .6z"
     id="path72" />
  <path
     style="fill:#ffffff;stroke-width:0.853333"
     d="m 151.89333,401.57478 c -1.408,-0.62248 -35.584,-32.08132 -75.946663,-69.90854 -61.040272,-57.20593 -73.5975845,-69.35631 -74.6403553,-72.2215 -2.6094696,-7.16999 -5.8155482,-3.77402 75.0261143,-79.46975 56.445994,-52.85294 74.507904,-69.29682 76.903914,-70.01469 6.26167,-1.87604 7.41937,-0.95823 32.60198,25.84619 12.77559,13.59837 23.69102,25.75688 24.25653,27.01891 1.33506,2.97948 1.36236,6.34311 0.0744,9.16983 -0.5669,1.24421 -21.7829,20.51687 -47.14667,42.82814 -25.36375,22.31127 -46.11592,40.83708 -46.11592,41.16846 0,0.33139 20.82345,18.92369 46.27432,41.31623 41.17753,36.22937 46.38795,41.09294 47.3059,44.15681 1.83858,6.13663 0.58655,7.9064 -24.41267,34.50794 -25.82531,27.48059 -27.34937,28.62213 -34.18089,25.60197 z"
     id="path82" />
  <path
     style="fill:#ffffff;stroke-width:0.853333"
     d="M 247.04,501.84416 C 205.50576,489.66341 206.75415,490.92008 213.39169,467.97268 268.77851,276.48853 346.41219,9.8485948 347.50719,7.3407908 349.22307,3.4110193 352.96758,0.87308442 357.12,0.82545539 358.76267,0.80661372 374.49017,4.9331783 392.07002,9.9955985 434.58698,22.239099 433.28238,20.953632 426.60832,44.027313 372.20526,232.11036 293.59887,502.12697 292.54301,504.54789 c -1.82729,4.18966 -5.79317,6.62316 -10.61707,6.51471 -2.0566,-0.0462 -17.75527,-4.19453 -34.88594,-9.21844 z"
     id="path84" />
  <path
     style="fill:#ffffff;stroke-width:0.853333"
     d="m 478.71156,401.24863 c -3.4416,-2.16315 -47.50058,-49.17989 -48.8064,-52.08287 -1.33096,-2.95886 -1.36326,-6.33233 -0.0874,-9.13245 0.55975,-1.22851 21.77575,-20.49473 47.14667,-42.81381 25.37092,-22.31908 46.12894,-40.87632 46.12894,-41.23832 0,-0.362 -20.83459,-18.99794 -46.29908,-41.41321 -40.71168,-35.83669 -46.4206,-41.16059 -47.30591,-44.11549 -1.82622,-6.09539 -0.50271,-7.97382 23.96744,-34.0166 12.38735,-13.18344 23.71535,-24.69731 25.17333,-25.58636 3.92089,-2.3909 7.41123,-2.0529 11.88041,1.15048 2.12807,1.52533 36.16658,33.10933 75.64116,70.18667 60.20807,56.5517 71.9267,67.92891 72.73237,70.61333 2.13851,7.12523 5.26172,3.82209 -73.25817,77.47873 -39.75284,37.2907 -73.51003,68.69605 -75.01597,69.78967 -3.7806,2.74548 -8.64005,3.22754 -11.89735,1.18023 z"
     id="path86" />
</svg>
