<?xml version="1.0" encoding="UTF-8" standalone="no"?>
<svg
   height="24"
   viewBox="0 -960 960 960"
   width="24"
   version="1.1"
   id="svg1"
   sodipodi:docname="moon.svg"
   inkscape:version="1.3.2 (091e20ef0f, 2023-11-25, custom)"
   xmlns:inkscape="http://www.inkscape.org/namespaces/inkscape"
   xmlns:sodipodi="http://sodipodi.sourceforge.net/DTD/sodipodi-0.dtd"
   xmlns="http://www.w3.org/2000/svg"
   xmlns:svg="http://www.w3.org/2000/svg">
  <defs
     id="defs1" />
  <sodipodi:namedview
     id="namedview1"
     pagecolor="#ffffff"
     bordercolor="#000000"
     borderopacity="0.25"
     inkscape:showpageshadow="2"
     inkscape:pageopacity="0.0"
     inkscape:pagecheckerboard="0"
     inkscape:deskcolor="#d1d1d1"
     inkscape:zoom="32"
     inkscape:cx="16.484375"
     inkscape:cy="8.859375"
     inkscape:window-width="1920"
     inkscape:window-height="1080"
     inkscape:window-x="0"
     inkscape:window-y="0"
     inkscape:window-maximized="1"
     inkscape:current-layer="svg1" />
  <path
     d="M480-120q-150 0-255-105T120-480q0-150 105-255t255-105q14 0 27.5 1t26.5 3q-41 29-65.5 75.5T444-660q0 90 63 153t153 63q55 0 101-24.5t75-65.5q2 13 3 26.5t1 27.5q0 150-105 255T480-120Zm0-80q88 0 158-48.5T740-375q-20 5-40 8t-40 3q-123 0-209.5-86.5T364-660q0-20 3-40t8-40q-78 32-126.5 102T200-480q0 116 82 198t198 82Zm-10-270Z"
     id="path1"
     style="fill:#ffffff" />
  <path
     style="fill:#ffffff;stroke-width:0.0916031;stroke:#ffffff"
     d="M 10.076336,20.757184 C 8.2546084,20.354881 6.8115922,19.521079 5.4630206,18.091522 4.3477696,16.909297 3.6694226,15.66444 3.2804416,14.086197 c -0.2799683,-1.135936 -0.2799683,-3.036458 0,-4.1723942 C 3.9238447,7.3032742 5.6945585,5.1089876 8.1068702,3.9328432 9.3314136,3.335806 10.147311,3.1475029 11.748092,3.0924761 c 0.743129,-0.025545 1.351145,-0.015441 1.351145,0.022454 0,0.037895 -0.257634,0.3422135 -0.572519,0.676264 -0.972776,1.0319821 -1.442749,2.2438483 -1.442749,3.7202565 0,1.5762847 0.463786,2.7092124 1.5566,3.8024384 1.144573,1.145004 2.224945,1.592839 3.847981,1.595066 1.565874,0.0021 2.759363,-0.481869 3.860075,-1.565443 l 0.516565,-0.508522 0.0643,0.553985 c 0.130595,1.12522 -0.166599,2.933631 -0.680627,4.141581 -0.800937,1.882173 -2.463956,3.614249 -4.35573,4.536601 -1.25228,0.610561 -2.039192,0.788444 -3.664122,0.828285 -1.099731,0.02697 -1.529491,-6.37e-4 -2.152672,-0.138258 z m 3.524089,-1.888003 c 1.199758,-0.254141 2.668679,-1.099284 3.550504,-2.04278 0.670548,-0.717444 1.472238,-2.035294 1.326681,-2.180853 -0.02798,-0.02798 -0.291159,0.0023 -0.584849,0.06737 -0.798759,0.176869 -2.409535,0.133172 -3.248698,-0.08813 C 12.502528,14.06003 10.557483,12.376981 9.7231161,10.366693 9.1842857,9.0684573 9.0251317,7.5076885 9.2918489,6.1374046 9.3604943,5.7847328 9.4032308,5.4820379 9.3868188,5.4647491 9.3704069,5.4474603 9.0757045,5.5812868 8.7319246,5.7621414 7.0043408,6.6709829 5.736184,8.224271 5.2063002,10.080464 4.937544,11.021922 4.9127595,12.864697 5.156459,13.78626 c 0.6336457,2.396164 2.6427365,4.411136 5.01855,5.033241 0.84509,0.221286 2.501858,0.245315 3.425416,0.04968 z"
     id="path2"
     transform="matrix(40,0,0,40,0,-960)" />
  <path
     style="fill:#ffffff;stroke-width:0.091603;stroke:#ffffff"
     d="M 9.7557249,20.623062 C 8.1881063,20.207067 7.1011078,19.584286 5.8404478,18.379859 4.632855,17.226131 3.7215094,15.672572 3.3246422,14.091197 c -0.2200074,-0.876652 -0.2200074,-3.305743 0,-4.1823948 C 3.6997558,8.4141073 4.501771,6.9910902 5.6236341,5.8296966 6.4451562,4.9792271 7.1526651,4.4715348 8.2493872,3.9455162 9.4865934,3.3521175 9.9909718,3.2383454 11.62489,3.1841083 l 1.411149,-0.046842 -0.563503,0.6547241 c -1.022206,1.1876813 -1.389258,2.1827968 -1.38748,3.7616067 0.0019,1.6898802 0.36319,2.5645249 1.555551,3.7658579 1.233907,1.243191 2.457706,1.715706 4.169106,1.609713 1.444808,-0.08948 2.450494,-0.528712 3.607235,-1.575447 l 0.493284,-0.446373 -0.0499,1.279151 c -0.09695,2.485139 -0.792641,4.196601 -2.390938,5.881929 -0.824738,0.869646 -1.65358,1.475152 -2.718249,1.985799 -1.28677,0.617174 -1.721199,0.708603 -3.567936,0.750898 -1.466855,0.03359 -1.673099,0.01813 -2.4274811,-0.182063 z m 3.9847331,-1.757987 c 1.273341,-0.299078 2.935654,-1.332637 3.687789,-2.292918 0.534145,-0.681964 1.075569,-1.591544 1.075569,-1.806931 0,-0.158238 -0.0445,-0.172018 -0.389313,-0.120546 -2.729783,0.407495 -4.752082,-0.153709 -6.54903,-1.817408 C 9.99139,11.369913 9.2539665,9.6877479 9.2525499,7.5511746 9.2521969,7.0188247 9.2959646,6.3449423 9.3498113,6.0536581 9.4036582,5.762374 9.421164,5.4975 9.3887131,5.4650492 9.2889996,5.3653356 8.0307451,6.0828362 7.4776735,6.5547906 6.407842,7.4677135 5.7414062,8.4329335 5.2841109,9.7317968 5.0147964,10.496735 5.0013377,10.603045 4.9969596,12 c -0.00487,1.552797 0.1056122,2.115481 0.6102354,3.108023 0.9366357,1.842265 2.9456143,3.43883 4.789751,3.806487 0.657774,0.131137 2.703493,0.10089 3.343512,-0.04943 z"
     id="path3"
     transform="matrix(40,0,0,40,0,-960)" />
  <path
     style="fill:#ffffff;stroke:#ffffff;stroke-width:0.00390625"
     d=""
     id="path4"
     transform="matrix(40,0,0,40,0,-960)" />
</svg>
