<?xml version="1.0" encoding="UTF-8" standalone="no"?>
<svg
   height="24"
   viewBox="0 -960 960 960"
   width="24"
   version="1.1"
   id="svg1"
   sodipodi:docname="sun.svg"
   inkscape:version="1.3.2 (091e20ef0f, 2023-11-25, custom)"
   xmlns:inkscape="http://www.inkscape.org/namespaces/inkscape"
   xmlns:sodipodi="http://sodipodi.sourceforge.net/DTD/sodipodi-0.dtd"
   xmlns="http://www.w3.org/2000/svg"
   xmlns:svg="http://www.w3.org/2000/svg">
  <defs
     id="defs1" />
  <sodipodi:namedview
     id="namedview1"
     pagecolor="#ffffff"
     bordercolor="#000000"
     borderopacity="0.25"
     inkscape:showpageshadow="2"
     inkscape:pageopacity="0.0"
     inkscape:pagecheckerboard="0"
     inkscape:deskcolor="#d1d1d1"
     inkscape:zoom="10.916667"
     inkscape:cx="11.954198"
     inkscape:cy="11.954198"
     inkscape:window-width="1920"
     inkscape:window-height="1080"
     inkscape:window-x="0"
     inkscape:window-y="0"
     inkscape:window-maximized="1"
     inkscape:current-layer="svg1" />
  <path
     d="M480-28 346-160H160v-186L28-480l132-134v-186h186l134-132 134 132h186v186l132 134-132 134v186H614L480-28Zm0-252q83 0 141.5-58.5T680-480q0-83-58.5-141.5T480-680q-83 0-141.5 58.5T280-480q0 83 58.5 141.5T480-280Zm0-200Zm0 340 100-100h140v-140l100-100-100-100v-140H580L480-820 380-720H240v140L140-480l100 100v140h140l100 100Zm0-340Z"
     id="path1" />
  <path
     style="fill:#273847;stroke-width:0.0916031"
     d="M 11.356742,16.902017 C 8.9518209,16.59645 7.0534351,14.433946 7.0534351,12 c 0,-1.640461 0.9018323,-3.2609315 2.3292705,-4.1853843 1.5381844,-0.9961754 3.7018284,-0.9955261 5.2345884,0.00157 1.367459,0.8895639 2.193253,2.2589073 2.299719,3.8134243 0.06365,0.929304 -0.0723,1.660944 -0.46029,2.477259 -0.912328,1.919486 -2.997471,3.06229 -5.099981,2.795148 z"
     id="path2"
     transform="matrix(40,0,0,40,0,-960)" />
  <path
     style="fill:#273847;stroke-width:0.0916031"
     d="M 10.328091,21.587593 8.6423702,19.923664 H 6.3364523 4.0305344 V 17.609579 15.295493 L 2.6044643,13.876754 C 1.8201257,13.096448 1.0947955,12.343042 0.99261934,12.202521 L 0.80684446,11.947025 2.4186894,10.319336 4.0305344,8.6916457 V 6.3839908 4.0763359 h 2.3059179 2.3059179 l 1.6857208,-1.663929 1.685721,-1.66392898 1.665754,1.66392898 1.665755,1.663929 h 2.312072 2.312073 v 2.3139587 2.3139588 l 1.603053,1.6010906 c 0.881679,0.880599 1.603054,1.643194 1.603054,1.694656 0,0.05146 -0.721375,0.814057 -1.603054,1.694656 l -1.603053,1.601091 v 2.313958 2.313959 h -2.312073 -2.312072 l -1.665755,1.663929 -1.665754,1.663929 z M 13.328244,19.282443 14.608233,18 h 1.718784 1.718785 v -1.71883 -1.71883 l 1.236641,-1.234096 C 19.962595,12.649491 20.519084,12.051781 20.519084,12 c 0,-0.05178 -0.556489,-0.649491 -1.236641,-1.328244 L 18.045802,9.4376599 V 7.71883 6 H 16.32939 14.612979 L 13.306489,4.6958414 12,3.3916827 10.693511,4.6958414 9.3870209,6 H 7.6706097 5.9541985 V 7.71883 9.4376599 L 4.7175573,10.671756 C 4.0374046,11.350509 3.480916,11.948219 3.480916,12 c 0,0.05178 0.5564886,0.649491 1.2366413,1.328244 L 5.9541985,14.56234 V 16.28117 18 h 1.7187844 1.7187845 l 1.2799886,1.282443 c 0.703993,0.705343 1.301703,1.282442 1.328244,1.282442 0.02654,0 0.624251,-0.577099 1.328244,-1.282442 z"
     id="path3"
     transform="matrix(40,0,0,40,0,-960)" />
</svg>
